<?xml version="1.0" ?><!DOCTYPE svg  PUBLIC '-//W3C//DTD SVG 1.1//EN'  'http://www.w3.org/Graphics/SVG/1.1/DTD/svg11.dtd'><svg enable-background="new 0 0 512 512" height="512px" id="Layer_1" version="1.1" viewBox="0 0 512 512" width="512px" xml:space="preserve" xmlns="http://www.w3.org/2000/svg" xmlns:xlink="http://www.w3.org/1999/xlink"><path d="M304,0h-96C93.125,0,0,93.125,0,208c0,74.438,39.405,139.25,98.188,176H96v128l144-96h64c114.875,0,208-93.125,208-208  S418.875,0,304,0z M304,352h-64l-80,48v-56.812C104.188,323.344,64,270.594,64,208c0-79.531,64.469-144,144-144h96  c79.53,0,144,64.469,144,144S383.531,352,304,352z"/></svg>