<?xml version="1.0" ?><svg enable-background="new 0 0 32 32" height="32px" id="svg2" version="1.1" viewBox="0 0 32 32" width="32px" xml:space="preserve" xmlns="http://www.w3.org/2000/svg" xmlns:cc="http://creativecommons.org/ns#" xmlns:dc="http://purl.org/dc/elements/1.1/" xmlns:inkscape="http://www.inkscape.org/namespaces/inkscape" xmlns:rdf="http://www.w3.org/1999/02/22-rdf-syntax-ns#" xmlns:sodipodi="http://sodipodi.sourceforge.net/DTD/sodipodi-0.dtd" xmlns:svg="http://www.w3.org/2000/svg"><g id="background"><rect fill="none" height="32" width="32"/></g><g id="search"><path d="M30,26L19.035,15.036C19.646,13.821,19.999,12.453,20,11c-0.002-4.973-4.029-9-9-9.002C6.027,2,2,6.027,1.999,11   C2,15.971,6.027,19.998,11,20c1.453-0.001,2.82-0.354,4.035-0.965L26,30L30,26z M4,11C4.006,7.132,7.132,4.006,11,4   c3.867,0.006,6.991,3.132,6.999,7.001c-0.008,3.867-3.132,6.991-6.999,6.999C7.132,17.991,4.006,14.867,4,11z"/></g></svg>