<?xml version="1.0" ?><svg enable-background="new 0 0 32 32" height="32px" id="svg2" version="1.1" viewBox="0 0 32 32" width="32px" xml:space="preserve" xmlns="http://www.w3.org/2000/svg" xmlns:cc="http://creativecommons.org/ns#" xmlns:dc="http://purl.org/dc/elements/1.1/" xmlns:inkscape="http://www.inkscape.org/namespaces/inkscape" xmlns:rdf="http://www.w3.org/1999/02/22-rdf-syntax-ns#" xmlns:sodipodi="http://sodipodi.sourceforge.net/DTD/sodipodi-0.dtd" xmlns:svg="http://www.w3.org/2000/svg"><g id="background"><rect fill="none" height="32" width="32" x="1" y="1"/></g><g id="book_x5F_text"><g><path d="M27.002,1v1.999h-2V5h2v28h-24c0,0-2,0-2-2V4.018c0-0.006-0.001-0.012-0.001-0.018C0.966,2.645,1.808,1.686,2.556,1.354    C3.294,0.992,3.918,1.004,4.002,1H27.002 M3.998,5C4,5,4.002,5,4.002,5h19V2.999h-19C4,3.005,3.97,2.997,3.853,3.018    c-0.115,0.019-0.274,0.06-0.404,0.125C3.196,3.314,3.035,3.353,3.002,4c0.015,0.5,0.134,0.609,0.272,0.743    c0.144,0.126,0.401,0.212,0.579,0.239C3.948,4.999,3.986,5,3.998,5 M5.002,31h20V7h-20V31"/></g><polygon points="7,23 7,21 19,21 19,23 7,23  "/><polygon points="7,15 7,13 23,13 23,15 7,15  "/><polygon points="7,19 7,17 23,17 23,19 7,19  "/></g></svg>