<?xml version="1.0" ?><!DOCTYPE svg  PUBLIC '-//W3C//DTD SVG 1.1//EN'  'http://www.w3.org/Graphics/SVG/1.1/DTD/svg11.dtd'><svg enable-background="new 0 0 512 512" height="512px" id="Layer_1" version="1.1" viewBox="0 0 512 512" width="512px" xml:space="preserve" xmlns="http://www.w3.org/2000/svg" xmlns:xlink="http://www.w3.org/1999/xlink"><path d="M74.966,437.013c-99.97-99.97-99.97-262.065,0-362.037c100.002-99.97,262.066-99.97,362.067,0  c99.971,99.971,99.971,262.067,0,362.037C337.032,536.998,174.968,536.998,74.966,437.013z M391.782,120.227  c-75.001-74.985-196.564-74.985-271.534,0c-75.001,74.985-75.001,196.55,0,271.535c74.97,74.986,196.533,74.986,271.534,0  C466.754,316.775,466.754,195.212,391.782,120.227z M188.124,369.137l-45.251-45.266l67.876-67.877l-67.876-67.876l45.251-45.267  L256,210.743l67.877-67.892l45.25,45.267l-67.876,67.876l67.876,67.877l-45.25,45.266L256,301.245L188.124,369.137z"/></svg>