<?xml version="1.0" ?><!DOCTYPE svg  PUBLIC '-//W3C//DTD SVG 1.1//EN'  'http://www.w3.org/Graphics/SVG/1.1/DTD/svg11.dtd'><svg enable-background="new 0 0 512 512" height="512px" id="Layer_1" version="1.1" viewBox="0 0 512 512" width="512px" xml:space="preserve" xmlns="http://www.w3.org/2000/svg" xmlns:xlink="http://www.w3.org/1999/xlink"><path d="M502.688,198.484L313.578,9.391c-7.217-7.248-16.9-10.044-26.367-9.263h-62.422c-9.467-0.781-19.151,2.015-26.368,9.263  l-38.396,38.397V0.128H64.049v143.636l-54.737,54.72c-7.248,7.248-10.027,16.917-9.247,26.368v63.202  c0,17.669,14.31,31.993,31.991,31.993h31.992v159.959c0,17.668,14.309,31.992,31.992,31.992h319.92  c17.683,0,31.991-14.324,31.991-31.992V320.048h31.991c17.685,0,31.992-14.325,31.992-31.993v-63.202  C512.717,215.401,509.937,205.732,502.688,198.484z M447.951,256.063h-63.983v191.951h-63.983V320.048H192.017v127.967h-63.983  V256.063H64.049v-17.746L238.255,64.111h35.491l174.205,174.206V256.063z"/></svg>