<?xml version="1.0" ?><svg enable-background="new 0 0 32 32" height="32px" id="svg2" version="1.1" viewBox="0 0 32 32" width="32px" xml:space="preserve" xmlns="http://www.w3.org/2000/svg" xmlns:cc="http://creativecommons.org/ns#" xmlns:dc="http://purl.org/dc/elements/1.1/" xmlns:inkscape="http://www.inkscape.org/namespaces/inkscape" xmlns:rdf="http://www.w3.org/1999/02/22-rdf-syntax-ns#" xmlns:sodipodi="http://sodipodi.sourceforge.net/DTD/sodipodi-0.dtd" xmlns:svg="http://www.w3.org/2000/svg"><g id="background"><rect fill="none" height="32" width="32"/></g><g id="user_x5F_full"><g><path d="M20,8c-0.571,0-8,0-8,0s-2,0-2,2v8c0,2.285,2,2,2,2v12h8V20c0,0,2,0.285,2-2c0-2.286,0-8,0-8S22,8,20,8z M16,6    c1.657,0,3-1.343,3-3s-1.343-3-3-3s-3,1.343-3,3S14.343,6,16,6z"/></g></g></svg>