<?xml version="1.0" ?><svg enable-background="new 0 0 32 32" height="32px" id="svg2" version="1.1" viewBox="0 0 32 32" width="32px" xml:space="preserve" xmlns="http://www.w3.org/2000/svg" xmlns:cc="http://creativecommons.org/ns#" xmlns:dc="http://purl.org/dc/elements/1.1/" xmlns:inkscape="http://www.inkscape.org/namespaces/inkscape" xmlns:rdf="http://www.w3.org/1999/02/22-rdf-syntax-ns#" xmlns:sodipodi="http://sodipodi.sourceforge.net/DTD/sodipodi-0.dtd" xmlns:svg="http://www.w3.org/2000/svg"><g id="background"><rect fill="none" height="32" width="32"/></g><g id="shopping_x5F_cart"><circle cx="9" cy="25" r="3"/><circle cx="23" cy="25" r="3"/><path d="M29.895,4.554c-0.245-0.494-0.846-0.696-1.34-0.449l-3.999,2c-0.343,0.169-0.555,0.515-0.555,0.896v1H4.387L3.948,6.684   C3.773,6.159,3.207,5.877,2.682,6.052c-0.523,0.175-0.805,0.741-0.63,1.265H2.05l4.001,12C6.187,19.727,6.568,20,7,20h18.002   c0.266,0,0.517-0.103,0.706-0.292s0.293-0.44,0.293-0.706V7.619l3.447-1.726C29.94,5.648,30.142,5.046,29.895,4.554z M7.719,18   l-2.666-8H24v8H7.719z"/></g></svg>