<?xml version="1.0" ?><svg enable-background="new 0 0 32 32" height="32px" id="svg2" version="1.1" viewBox="0 0 32 32" width="32px" xml:space="preserve" xmlns="http://www.w3.org/2000/svg" xmlns:cc="http://creativecommons.org/ns#" xmlns:dc="http://purl.org/dc/elements/1.1/" xmlns:inkscape="http://www.inkscape.org/namespaces/inkscape" xmlns:rdf="http://www.w3.org/1999/02/22-rdf-syntax-ns#" xmlns:sodipodi="http://sodipodi.sourceforge.net/DTD/sodipodi-0.dtd" xmlns:svg="http://www.w3.org/2000/svg"><g id="background"><rect fill="none" height="32" width="32"/></g><g id="zoom_x5F_out"><g><rect height="2" width="10" x="6" y="10"/></g><path d="M30,26L19.085,15.085c0.622-1.229,0.98-2.614,0.981-4.086c-0.002-5.008-4.058-9.066-9.067-9.066   c-5.008,0-9.066,4.058-9.066,9.066c0,5.01,4.058,9.065,9.066,9.067c1.472-0.001,2.857-0.359,4.086-0.981L26,30L30,26z    M4.066,10.999c0.008-3.83,3.104-6.925,6.933-6.933c3.832,0.008,6.927,3.104,6.933,6.933c-0.006,3.832-3.101,6.927-6.933,6.933   C7.169,17.926,4.074,14.831,4.066,10.999z"/></g></svg>